<mxfile host="app.diagrams.net" modified="2022-11-06T08:36:41.481Z" agent="5.0 (Macintosh; Intel Mac OS X 10_13_6) AppleWebKit/537.36 (KHTML, like Gecko) Chrome/106.0.0.0 Safari/537.36 OPR/92.0.0.0" etag="XfrFLBySLrntjDID9s_M" version="20.5.2" type="github">
  <diagram id="SZ3ZT3A863EKlIqSy2Gr" name="Page-1">
    <mxGraphModel dx="946" dy="550" grid="1" gridSize="10" guides="1" tooltips="1" connect="1" arrows="1" fold="1" page="1" pageScale="1" pageWidth="827" pageHeight="1169" math="0" shadow="0">
      <root>
        <mxCell id="0" />
        <mxCell id="1" parent="0" />
        <mxCell id="n076lMzE4tRvP39aOjs_-1" value="INPUT" style="rounded=0;whiteSpace=wrap;html=1;strokeWidth=1;fontSize=16;" vertex="1" parent="1">
          <mxGeometry x="80" y="200" width="120" height="60" as="geometry" />
        </mxCell>
        <mxCell id="n076lMzE4tRvP39aOjs_-2" value="" style="rounded=0;whiteSpace=wrap;html=1;strokeWidth=1;fontSize=16;" vertex="1" parent="1">
          <mxGeometry x="280" y="160" width="200" height="160" as="geometry" />
        </mxCell>
        <mxCell id="n076lMzE4tRvP39aOjs_-5" value="" style="endArrow=classic;html=1;rounded=0;fontSize=16;exitX=1;exitY=0.5;exitDx=0;exitDy=0;" edge="1" parent="1" source="n076lMzE4tRvP39aOjs_-2">
          <mxGeometry width="50" height="50" relative="1" as="geometry">
            <mxPoint x="390" y="310" as="sourcePoint" />
            <mxPoint x="560" y="240" as="targetPoint" />
          </mxGeometry>
        </mxCell>
      </root>
    </mxGraphModel>
  </diagram>
</mxfile>
